# xmcd
#
# Track frame offsets:
#	182
#	11797
#	20770
#	34965
#	51515
#	66470
#	79422
#	91500
#	106195
#	117277
#	129045
#	147565
#	157462
#	173430
#	183515
#	195750
#	207240
#	218435
#
# Disc length: 3077
#
# Revision: 1
# Processed by: cddbd v1.5.1PL0 Copyright (c) Steve Scherf et al.
# Submitted via: audiograbber 1.81.02
# Normalized: r0:DSETVAR1
#
DISCID=fb0c0312
DTITLE=Various Artist - The best of Country and Western Vol. 4
DYEAR=1990
DGENRE=Country
TTITLE0=Tom Benton - Some Broken Hearts Never Mend
TTITLE1=The Nashville Gamblers - She`ll Be Coming Round The Monautain
TTITLE2=Truck Stop - Orange Blossom Special
TTITLE3=Dave Dudley - When My Blue Moon Turns To Gold Again
TTITLE4=Kingston Trio - Tom Dooley
TTITLE5=Ronnie Rogers - Diane, Do The Wrong Again
TTITLE6=Dolly Parton - Two Little Orohans
TTITLE7=Blue River Connection - Banks Of Ohio
TTITLE8=Johnny Cash - Oh Lonesome Me
TTITLE9=Do Williams - Follow Me Back To Louisvile
TTITLE10=Dave Dudley - He Doesn`t Live Thre Anymore
TTITLE11=Dolly Parton - Release Me
TTITLE12=Billy Wyman - Lucille
TTITLE13=The Nashville Gamblers - Polly Wolly Doodle
TTITLE14=Barbara Shelton - Stand By Your Man
TTITLE15=The Nashville Gamblers - Bury Be Not On The Lone Prairie
TTITLE16=Johnny Cash - Mean Eyed Cat
TTITLE17=David Price - I Need A Friend
EXTD=Ariola Express -Gold -Serie
EXTT0=
EXTT1=
EXTT2=
EXTT3=
EXTT4=
EXTT5=
EXTT6=
EXTT7=
EXTT8=
EXTT9=
EXTT10=
EXTT11=
EXTT12=
EXTT13=
EXTT14=
EXTT15=
EXTT16=
EXTT17=
PLAYORDER=
